# File created by Blade
# Date/Time:  Tue Jan 27 20:08:00 2015
#---------------------------------------------------------
:version 1.10
:name HOM
:units
  mass 1.0
  length 1.000000
  angle deg
:documentation
     Acclaim Skeleton File
:root
   axis xyz
   order TX TY TZ RX RY RZ
   position 0.000000 0.000000 0.000000
   orientation 0 0 0
:bonedata
   begin
      id 1
      name Spine_dum
      direction 0.000000 1.000000 0.000000
      length 6.116652
      axis 0.0 0.0 0.0 xyz
   end
   begin
      id 2
      name LeftUpLeg_dum
      direction 1.000000 0.000000 0.000000
      length 4.711765
      axis 0.0 0.0 0.0 xyz
   end
   begin
      id 3
      name RightUpLeg_dum
      direction -1.000000 0.000000 0.000000
      length 4.711765
      axis 0.0 0.0 0.0 xyz
   end
   begin
      id 4
      name Spine
      direction 0.000000 1.000000 0.000000
      length 0.000000
      axis 0.0 0.0 0.0 xyz
      dof rx ry rz
   end
   begin
      id 5
      name Spine_dum1
      direction 0.000000 1.000000 0.000000
      length 15.225563
      axis 0.0 0.0 0.0 xyz
   end
   begin
      id 6
      name Spine_dum2
      direction 0.000000 1.000000 0.000000
      length 8.977654
      axis 0.0 0.0 0.0 xyz
   end
   begin
      id 7
      name Spine_dum3
      direction 0.000000 1.000000 0.000000
      length 8.977654
      axis 0.0 0.0 0.0 xyz
   end
   begin
      id 8
      name Head
      direction 0.000000 1.000000 0.000000
      length 4.527550
      axis 0.0 0.0 0.0 xyz
      dof rx ry rz
   end
   begin
      id 9
      name LeftShoulder
      direction 1.000000 0.000000 0.000000
      length 7.110130
      axis 0.0 0.0 -90.0 xyz
      dof rx ry rz
   end
   begin
      id 10
      name LeftArm
      direction 1.000000 0.000000 0.000000
      length 10.398341
      axis 0.0 0.0 -90.0 xyz
      dof rx ry rz
   end
   begin
      id 11
      name LeftForeArm
      direction 1.000000 0.000000 0.000000
      length 8.888997
      axis 0.0 0.0 -90.0 xyz
      dof ry rz rx
   end
   begin
      id 12
      name LeftHand
      direction 0.000000 0.000000 0.000000
      length 0.000000
      axis 0.0 0.0 -90.0 xyz
      dof rx ry rz
   end
   begin
      id 13
      name LeftHand_dum1
      direction 0.000000 0.000000 0.000000
      length 0.000000
      axis 0.0 0.0 -90.0 xyz
   end
   begin
      id 14
      name LeftHand_dum2
      direction 1.000000 0.000000 0.000000
      length 3.937000
      axis 0.0 0.0 -90.0 xyz
   end
   begin
      id 15
      name LeftHandThumb1
      direction 0.000000 0.000000 1.000000
      length 3.937000
      axis 0.0 0.0 -90.0 xyz
      dof rx rz ry
   end
   begin
      id 16
      name RightShoulder
      direction -1.000000 0.000000 0.000000
      length 7.110130
      axis 0.0 0.0 90.0 xyz
      dof rx ry rz
   end
   begin
      id 17
      name RightArm
      direction -1.000000 0.000000 0.000000
      length 10.398341
      axis 0.0 0.0 90.0 xyz
      dof rx ry rz
   end
   begin
      id 18
      name RightForeArm
      direction -1.000000 0.000000 0.000000
      length 8.888997
      axis 0.0 0.0 90.0 xyz
      dof ry rz rx
   end
   begin
      id 19
      name RightHand
      direction 0.000000 0.000000 0.000000
      length 0.000000
      axis 0.0 0.0 90.0 xyz
      dof rx ry rz
   end
   begin
      id 20
      name RightHand_dum1
      direction 0.000000 0.000000 0.000000
      length 0.000000
      axis 0.0 0.0 90.0 xyz
   end
   begin
      id 21
      name RightHand_dum2
      direction -1.000000 0.000000 0.000000
      length 3.937000
      axis 0.0 0.0 90.0 xyz
   end
   begin
      id 22
      name RightHandThumb1
      direction 0.000000 0.000000 1.000000
      length 3.937000
      axis 0.0 0.0 90.0 xyz
      dof rx rz ry
   end
   begin
      id 23
      name LeftUpLeg
      direction 0.000000 -1.000000 0.000000
      length 15.510451
      axis 0.0 0.0 0.0 xyz
      dof rx ry rz
   end
   begin
      id 24
      name LeftLeg
      direction 0.000000 -1.000000 0.000000
      length 14.858061
      axis 0.0 0.0 0.0 xyz
      dof rx ry rz
   end
   begin
      id 25
      name LeftFoot
      direction 0.000000 -0.258819 0.965926
      length 5.128852
      axis 15.0 0.0 0.0 xyz
      dof rx ry rz
   end
   begin
      id 26
      name LeftToeBase
      direction 0.000000 0.000000 1.000000
      length 2.952750
      axis 0.0 0.0 0.0 xyz
      dof rx ry rz
   end
   begin
      id 27
      name RightUpLeg
      direction 0.000000 -1.000000 0.000000
      length 15.510451
      axis 0.0 0.0 0.0 xyz
      dof rx ry rz
   end
   begin
      id 28
      name RightLeg
      direction 0.000000 -1.000000 0.000000
      length 14.858061
      axis 0.0 0.0 0.0 xyz
      dof rx ry rz
   end
   begin
      id 29
      name RightFoot
      direction 0.000000 -0.258819 0.965926
      length 5.128852
      axis 15.0 0.0 0.0 xyz
      dof rx ry rz
   end
   begin
      id 30
      name RightToeBase
      direction 0.000000 0.000000 1.000000
      length 2.952750
      axis 0.0 0.0 0.0 xyz
      dof rx ry rz
   end
:hierarchy
   begin
      root Spine_dum LeftUpLeg_dum RightUpLeg_dum
      Spine_dum Spine
      LeftUpLeg_dum LeftUpLeg
      RightUpLeg_dum RightUpLeg
      Spine Spine_dum1 Spine_dum2 Spine_dum3
      Spine_dum1 Head
      Spine_dum2 LeftShoulder
      Spine_dum3 RightShoulder
      LeftShoulder LeftArm
      LeftArm LeftForeArm
      LeftForeArm LeftHand
      LeftHand LeftHand_dum1 LeftHand_dum2
      LeftHand_dum1 LeftHandThumb1
      RightShoulder RightArm
      RightArm RightForeArm
      RightForeArm RightHand
      RightHand RightHand_dum1 RightHand_dum2
      RightHand_dum1 RightHandThumb1
      LeftUpLeg LeftLeg
      LeftLeg LeftFoot
      LeftFoot LeftToeBase
      RightUpLeg RightLeg
      RightLeg RightFoot
      RightFoot RightToeBase
   end

# File created by Blade
# Date/Time:  Tue Jan 27 20:07:51 2015
# Frame Rate: 120.000 fps
#------------------------------------------------------
:FULLY-SPECIFIED
:DEGREES
1410
root 5.970986 32.240786 -4.290493 -6.291775 7.829611 -1.306475
Spine 6.243958 2.366349 -4.586575
Head 23.117827 -9.324655 3.501694
LeftShoulder -12.609068 -5.269153 30.378445
LeftArm -0.934960 -8.532887 -75.149512
LeftForeArm -13.856743 -0.000000 109.719252
LeftHand 11.659427 -0.000000 7.146437
LeftHandThumb1 -26.253704 0.000000 33.147579
RightShoulder -19.037316 -18.168985 -20.678681
RightArm 10.611866 -21.444754 90.895931
RightForeArm -16.351791 0.000000 24.055869
RightHand 17.344135 -0.000000 1.446851
RightHandThumb1 -24.326973 -0.000000 -32.862282
LeftUpLeg 12.584875 -5.535510 -7.377572
LeftLeg -2.173307 -0.000000 0.000000
LeftFoot -13.930751 11.347672 -16.338454
LeftToeBase 21.326324 -0.000000 -0.000000
RightUpLeg -45.250279 -19.044595 38.093327
RightLeg 80.677554 -0.000000 -0.000000
RightFoot 27.147319 -30.685470 12.040572
RightToeBase 11.626751 -0.000000 -0.000000
1411
root 5.969850 32.237786 -4.286645 -6.256758 7.657591 -1.287546
Spine 6.175722 2.569772 -4.617729
Head 23.150746 -9.386503 3.554391
LeftShoulder -12.625195 -5.257247 30.375228
LeftArm -0.921306 -8.600530 -75.100705
LeftForeArm -13.973731 -0.000000 109.722347
LeftHand 11.775101 -0.000000 6.727703
LeftHandThumb1 -26.253704 0.000000 33.147579
RightShoulder -19.032517 -18.201009 -20.618355
RightArm 10.652163 -21.493197 90.845110
RightForeArm -16.280641 -0.000000 24.086141
RightHand 17.248369 -0.000000 1.687642
RightHandThumb1 -24.326973 -0.000000 -32.862282
LeftUpLeg 12.553470 -5.516502 -7.396327
LeftLeg -2.142594 -0.000000 0.000000
LeftFoot -14.021497 11.423132 -16.437432
LeftToeBase 21.318865 -0.000000 -0.000000
RightUpLeg -45.484839 -19.588861 38.568907
RightLeg 80.817550 -0.000000 -0.000000
RightFoot 27.337104 -30.575960 11.602341
RightToeBase 11.501051 -0.000000 -0.000000
1412
root 5.966237 32.234635 -4.285057 -6.210405 7.494164 -1.284877
Spine 6.102009 2.766740 -4.632098
Head 23.164987 -9.464403 3.604740
LeftShoulder -12.634988 -5.292119 30.371489
LeftArm -0.958524 -8.596451 -75.062715
LeftForeArm -13.955160 -0.000000 109.776560
LeftHand 11.791444 -0.000000 6.822403
LeftHandThumb1 -26.253704 0.000000 33.147579
RightShoulder -19.047140 -18.262355 -20.532620
RightArm 10.742305 -21.511645 90.783023
RightForeArm -16.278500 -0.000000 24.080869
RightHand 17.295433 -0.000000 1.699201
RightHandThumb1 -24.326973 -0.000000 -32.862282
LeftUpLeg 12.519049 -5.481228 -7.399995
LeftLeg -2.143813 -0.000000 0.000000
LeftFoot -14.091208 11.552570 -16.418516
LeftToeBase 21.374900 -0.000000 -0.000000
RightUpLeg -45.708213 -20.032847 39.003117
RightLeg 80.920950 -0.000000 -0.000000
RightFoot 27.601821 -30.392153 11.082926
RightToeBase 11.388052 -0.000000 -0.000000
1413
root 5.963381 32.231601 -4.282440 -6.173983 7.334834 -1.271371
Spine 6.040819 2.981239 -4.660762
Head 23.171386 -9.547820 3.678237
LeftShoulder -12.607218 -5.274786 30.364911
LeftArm -0.965233 -8.651116 -75.049591
LeftForeArm -13.879011 0.000000 109.862601
LeftHand 11.797755 -0.000000 6.951880
LeftHandThumb1 -26.253704 0.000000 33.147579
RightShoulder -19.076409 -18.257635 -20.464703
RightArm 10.758115 -21.536188 90.751093
RightForeArm -16.275068 -0.000000 24.049406
RightHand 17.296431 -0.000000 1.710614
RightHandThumb1 -24.326973 -0.000000 -32.862282
LeftUpLeg 12.493268 -5.452220 -7.415035
LeftLeg -2.127343 -0.000000 0.000000
LeftFoot -14.189196 11.618088 -16.517215
LeftToeBase 21.522867 -0.000000 -0.000000
RightUpLeg -45.884907 -20.426661 39.370920
RightLeg 80.987738 -0.000000 -0.000000
RightFoot 27.354041 -30.288971 11.155669
RightToeBase 12.361450 -0.000000 -0.000000
1414
root 5.961407 32.228454 -4.281020 -6.136130 7.180209 -1.253040
Spine 5.984671 3.177761 -4.691880
Head 23.160633 -9.619014 3.756815
LeftShoulder -12.591745 -5.262027 30.364783
LeftArm -0.998207 -8.735691 -75.033030
LeftForeArm -13.943095 -0.000000 109.942900
LeftHand 11.810525 -0.000000 6.837117
LeftHandThumb1 -26.253704 0.000000 33.147579
RightShoulder -19.105739 -18.266187 -20.402395
RightArm 10.789923 -21.516537 90.734063
RightForeArm -16.313712 -0.000000 24.011512
RightHand 17.295409 0.000000 1.782547
RightHandThumb1 -24.326973 -0.000000 -32.862282
LeftUpLeg 12.461590 -5.387472 -7.427064
LeftLeg -2.127829 -0.000000 0.000000
LeftFoot -14.228825 11.719607 -16.514078
LeftToeBase 21.254250 -0.000000 -0.000000
RightUpLeg -46.056505 -20.751875 39.660585
RightLeg 81.042801 -0.000000 -0.000000
RightFoot 27.323382 -30.326125 11.191396
RightToeBase 12.618153 -0.000000 -0.000000
1415
root 5.960347 32.225013 -4.280698 -6.106777 7.008753 -1.225072
Spine 5.949588 3.389985 -4.725896
Head 23.121122 -9.693016 3.830460
LeftShoulder -12.578130 -5.261358 30.372493
LeftArm -1.036473 -8.746834 -75.021719
LeftForeArm -13.701031 -0.000000 110.050326
LeftHand 11.693560 -0.000000 7.186273
LeftHandThumb1 -26.253704 0.000000 33.147579
RightShoulder -19.138970 -18.228035 -20.366888
RightArm 10.782603 -21.552468 90.728984
RightForeArm -16.372185 -0.000000 23.965640
RightHand 17.310025 -0.000000 1.802639
RightHandThumb1 -24.326973 -0.000000 -32.862282
LeftUpLeg 12.440772 -5.281874 -7.445103
LeftLeg -2.117915 -0.000000 0.000000
LeftFoot -14.260138 11.730066 -16.628388
LeftToeBase 21.102085 -0.000000 -0.000000
RightUpLeg -46.208416 -21.019341 39.914927
RightLeg 81.087492 -0.000000 -0.000000
RightFoot 27.306673 -30.352545 10.938469
RightToeBase 13.359801 -0.000000 -0.000000
1416
root 5.959143 32.222117 -4.280910 -6.073219 6.844942 -1.196635
Spine 5.907311 3.579838 -4.766183
Head 23.096970 -9.758535 3.905640
LeftShoulder -12.570501 -5.227222 30.380202
LeftArm -1.059053 -8.792167 -75.009446
LeftForeArm -13.666916 0.000000 110.153649
LeftHand 11.622992 -0.000000 7.307223
LeftHandThumb1 -26.253704 0.000000 33.147579
RightShoulder -19.154109 -18.204129 -20.335142
RightArm 10.798542 -21.598862 90.715637
RightForeArm -16.319238 -0.000000 23.899003
RightHand 17.307417 0.000000 2.019081
RightHandThumb1 -24.326973 -0.000000 -32.862282
LeftUpLeg 12.412348 -5.209405 -7.469079
LeftLeg -2.109232 -0.000000 0.000000
LeftFoot -14.310920 11.792541 -16.682417
LeftToeBase 21.075087 -0.000000 -0.000000
RightUpLeg -46.318505 -21.219556 40.094684
RightLeg 81.077287 -0.000000 -0.000000
RightFoot 27.206566 -30.326588 10.976157
RightToeBase 15.968203 -0.000000 -0.000000
1417
root 5.957375 32.219875 -4.278971 -6.059935 6.682959 -1.182637
Spine 5.886235 3.745358 -4.787095
Head 23.063520 -9.798997 3.971886
LeftShoulder -12.607882 -5.132510 30.398820
LeftArm -1.030762 -8.843185 -75.037417
LeftForeArm -13.866276 -0.000000 110.233979
LeftHand 11.584358 -0.000000 7.277983
LeftHandThumb1 -26.253704 0.000000 33.147579
RightShoulder -19.154836 -18.176165 -20.317394
RightArm 10.809323 -21.654553 90.706363
RightForeArm -16.301886 -0.000000 23.843038
RightHand 17.286955 0.000000 2.020098
RightHandThumb1 -24.326973 -0.000000 -32.862282
LeftUpLeg 12.415098 -5.123123 -7.475378
LeftLeg -2.130542 -0.000000 0.000000
LeftFoot -14.350492 11.877080 -16.620483
LeftToeBase 21.212694 -0.000000 -0.000000
RightUpLeg -46.371136 -21.355223 40.210586
RightLeg 81.036691 -0.000000 -0.000000
RightFoot 27.155211 -30.369025 11.202750
RightToeBase 15.403691 -0.000000 -0.000000
1418
root 5.954443 32.218536 -4.276700 -6.054453 6.523075 -1.176071
Spine 5.873646 3.894455 -4.793160
Head 23.032412 -9.823470 4.011373
LeftShoulder -12.634691 -5.067598 30.404750
LeftArm -1.053497 -8.894350 -75.026268
LeftForeArm -13.823559 0.000000 110.313911
LeftHand 11.517141 -0.000000 7.385905
LeftHandThumb1 -26.253704 0.000000 33.147579
RightShoulder -19.148918 -18.206852 -20.295604
RightArm 10.880603 -21.685697 90.693961
RightForeArm -16.280300 -0.000000 23.792028
RightHand 17.297222 -0.000000 2.060636
RightHandThumb1 -24.326973 -0.000000 -32.862282
LeftUpLeg 12.428499 -5.011782 -7.468125
LeftLeg -2.151923 -0.000000 0.000000
LeftFoot -14.374415 11.890128 -16.645807
LeftToeBase 21.249301 -0.000000 -0.000000
RightUpLeg -46.392354 -21.446422 40.287927
RightLeg 80.974537 -0.000000 -0.000000
RightFoot 26.998997 -30.403549 11.389465
RightToeBase 16.593065 -0.000000 -0.000000
1419
root 5.952398 32.217129 -4.274710 -6.036797 6.382186 -1.166033
Spine 5.852398 4.054579 -4.800625
Head 22.994723 -9.867474 4.044950
LeftShoulder -12.666553 -4.940090 30.384327
LeftArm -0.970516 -9.000912 -74.989458
LeftForeArm -13.989049 -0.000000 110.327933
LeftHand 11.583539 0.000000 6.874303
LeftHandThumb1 -26.253704 0.000000 33.147579
RightShoulder -19.181909 -18.194878 -20.281716
RightArm 10.882675 -21.731086 90.701326
RightForeArm -16.294450 -0.000000 23.753463
RightHand 17.274231 -0.000000 2.110567
RightHandThumb1 -24.326973 -0.000000 -32.862282
LeftUpLeg 12.432824 -4.906231 -7.465715
LeftLeg -2.183177 -0.000000 0.000000
LeftFoot -14.372296 11.920693 -16.619194
LeftToeBase 21.218167 -0.000000 -0.000000
RightUpLeg -46.419215 -21.512014 40.324321
RightLeg 80.888935 -0.000000 -0.000000
RightFoot 27.107041 -30.413517 11.206562
RightToeBase 14.685637 -0.000000 -0.000000
